# xmcd
#
# Track frame offsets:
#	150
#	11124
#	20735
#	30861
#	45134
#	56612
#	66182
#	75182
#	85741
#	97916
#	107551
#	119038
#	131209
#	141727
#	151431
#	161794
#	174744
#	184134
#	194213
#	206279
#	219730
#	230136
#	241198
#	252334
#
# Disc length: 3522 seconds
#
# Revision: 1
# Processed by: cddbd v1.5PL3 Copyright (c) Steve Scherf et al.
# Submitted via: EasyCDDAExtractor 5.0.7
#
DISCID=560dc018
DTITLE=Various Artist - Doo Wop Style
DYEAR=1900
DGENRE=Blues
TTITLE0=Jades - Pretending
TTITLE1=Cellos - Adele
TTITLE2=Tangents - I Can't Live Alone
TTITLE3=West Coast - Lana
TTITLE4=Playboys (Caleb and the) - I'm Yours
TTITLE5=Dynamics - Gone Is My Love
TTITLE6=Meridians - Have You Forgotten
TTITLE7=Sweet and Sassy - I Really Love You So
TTITLE8=Jamecos - Most Of All
TTITLE9=Arthur Epps and Group - Why Him Instead Of Me
TTITLE10=Nancy Leon and Group - So They Say
TTITLE11=Cincin Nations - Magic Genie
TTITLE12=Hi Tension - The Clock
TTITLE13=John Hurley and Group - Lonely Boy
TTITLE14=George Jay and Group - I Cross My Heart
TTITLE15=Jimmy and Wayne - Magic Of Her Love
TTITLE16=Rainbows - Love Is Like A Mountain
TTITLE17=Hi Lites - Maybe You'll Be There
TTITLE18=Del Satins - Who Cares
TTITLE19=Matadors - Be Good To Me
TTITLE20=Four Sportsmen - Surrender
TTITLE21=King Crooners - Won't You Let Me Know
TTITLE22=Casta Leers - I'll Be Around
TTITLE23=Jaynells - Out Of A Million Girls
EXTD=
EXTT0=
EXTT1=
EXTT2=
EXTT3=
EXTT4=
EXTT5=
EXTT6=
EXTT7=
EXTT8=
EXTT9=
EXTT10=
EXTT11=
EXTT12=
EXTT13=
EXTT14=
EXTT15=
EXTT16=
EXTT17=
EXTT18=
EXTT19=
EXTT20=
EXTT21=
EXTT22=
EXTT23=
PLAYORDER=
